<?xml version="1.0" encoding="UTF-8"?>
<!DOCTYPE svg PUBLIC "-//W3C//DTD SVG 1.1//EN" "http://www.w3.org/Graphics/SVG/1.1/DTD/svg11.dtd">
<svg xmlns="http://www.w3.org/2000/svg" version="1.1" width="202px" height="113px" style="shape-rendering:geometricPrecision; text-rendering:geometricPrecision; image-rendering:optimizeQuality; fill-rule:evenodd; clip-rule:evenodd" xmlns:xlink="http://www.w3.org/1999/xlink">
<g><path style="opacity:0.195" fill="#c8c8c8" d="M 31.5,18.5 C 31.5,18.8333 31.5,19.1667 31.5,19.5C 20.7501,19.8602 10.0835,19.1935 -0.5,17.5C -0.5,16.8333 -0.5,16.1667 -0.5,15.5C 0.707917,16.2341 2.04125,16.5674 3.5,16.5C 3.5,15.5 3.5,14.5 3.5,13.5C 2.04125,13.4326 0.707917,13.7659 -0.5,14.5C -0.5,13.8333 -0.5,13.1667 -0.5,12.5C 5.33803,11.9439 11.1714,11.2772 17,10.5C 22.4847,11.1527 27.9847,11.6527 33.5,12C 23.7165,12.0795 14.0498,13.0795 4.5,15C 13.2206,18.0267 22.2206,19.1934 31.5,18.5 Z"/></g>
<g><path style="opacity:0.16" fill="#c7c7c7" d="M 129.5,14.5 C 128.833,14.5 128.167,14.5 127.5,14.5C 126.448,14.3505 125.448,14.5172 124.5,15C 125.905,16.2692 127.571,16.7692 129.5,16.5C 136.62,17.9278 143.953,18.5945 151.5,18.5C 151.5,19.1667 151.5,19.8333 151.5,20.5C 141.339,19.2628 131.005,18.4294 120.5,18C 117.553,17.8882 116.22,16.3882 116.5,13.5C 128.078,11.4684 139.745,10.635 151.5,11C 143.951,11.707 136.618,12.8737 129.5,14.5 Z M 121.5,13.5 C 122.239,13.369 122.906,13.5357 123.5,14C 122.888,15.3033 122.554,16.4699 122.5,17.5C 117.864,16.5122 117.53,15.1789 121.5,13.5 Z"/></g>
<g><path style="opacity:0.737" fill="#a5a5a5" d="M 32.5,14.5 C 33.4387,15.3274 33.1054,15.9941 31.5,16.5C 23.8643,17.06 16.1976,16.56 8.5,15C 16.4931,14.5003 24.4931,14.3336 32.5,14.5 Z"/></g>
<g><path style="opacity:0.601" fill="#a5a5a5" d="M 127.5,14.5 C 128.167,14.5 128.833,14.5 129.5,14.5C 137.167,14.5 144.833,14.5 152.5,14.5C 152.672,15.4916 152.338,16.1583 151.5,16.5C 144.222,17.0648 136.889,17.0648 129.5,16.5C 128.833,15.8333 128.167,15.1667 127.5,14.5 Z"/></g>
<g><path style="opacity:0.554" fill="#a5a5a5" d="M 155.5,14.5 C 162.5,14.5 169.5,14.5 176.5,14.5C 177.833,14.5 179.167,14.5 180.5,14.5C 180.5,15.1667 180.5,15.8333 180.5,16.5C 179.833,16.5 179.167,16.5 178.5,16.5C 171.419,17.1208 164.419,17.1208 157.5,16.5C 156.167,16.5 155.5,15.8333 155.5,14.5 Z"/></g>
<g><path style="opacity:0.99" fill="#29353e" d="M 32.5,14.5 C 33.5,13.1667 34.5,13.1667 35.5,14.5C 35.5,15.8333 36.1667,16.5 37.5,16.5C 37.5,17.1667 37.5,17.8333 37.5,18.5C 36.1667,18.8333 36.1667,19.1667 37.5,19.5C 37.5,20.1667 37.5,20.8333 37.5,21.5C 35.3888,22.7416 33.3888,22.7416 31.5,21.5C 31.5,20.8333 31.5,20.1667 31.5,19.5C 31.5,19.1667 31.5,18.8333 31.5,18.5C 31.5,17.8333 31.5,17.1667 31.5,16.5C 33.1054,15.9941 33.4387,15.3274 32.5,14.5 Z"/></g>
<g><path style="opacity:0.209" fill="#bfbfbf" d="M 37.5,19.5 C 36.1667,19.1667 36.1667,18.8333 37.5,18.5C 44.0075,18.4085 44.0075,17.7418 37.5,16.5C 36.1667,16.5 35.5,15.8333 35.5,14.5C 67.3755,14.9778 67.3755,13.8112 35.5,11C 47.6209,10.1803 59.6209,11.0137 71.5,13.5C 71.5674,16.766 69.9008,18.266 66.5,18C 63.5738,18.2178 60.7405,18.7178 58,19.5C 51.243,18.7848 44.4097,18.7848 37.5,19.5 Z M 56.5,16.5 C 58.6084,15.2247 60.9417,14.7247 63.5,15C 61.3225,16.2022 58.9892,16.7022 56.5,16.5 Z M 65.5,16.5 C 64.913,15.2334 64.913,14.2334 65.5,13.5C 70.732,14.5949 70.732,15.5949 65.5,16.5 Z"/></g>
<g><path style="opacity:0.987" fill="#2b383e" d="M 152.5,14.5 C 153.5,14.5 154.5,14.5 155.5,14.5C 155.5,15.8333 156.167,16.5 157.5,16.5C 157.5,17.1667 157.5,17.8333 157.5,18.5C 156.167,19.1667 156.167,19.8333 157.5,20.5C 157.5,20.8333 157.5,21.1667 157.5,21.5C 155.389,22.7416 153.389,22.7416 151.5,21.5C 151.5,21.1667 151.5,20.8333 151.5,20.5C 151.5,19.8333 151.5,19.1667 151.5,18.5C 151.5,17.8333 151.5,17.1667 151.5,16.5C 152.338,16.1583 152.672,15.4916 152.5,14.5 Z"/></g>
<g><path style="opacity:0.112" fill="#c6c6c6" d="M 157.5,20.5 C 156.167,19.8333 156.167,19.1667 157.5,18.5C 164.701,19.3257 171.701,18.6591 178.5,16.5C 179.167,16.5 179.833,16.5 180.5,16.5C 182.933,16.2144 182.933,15.5477 180.5,14.5C 179.167,14.5 177.833,14.5 176.5,14.5C 169.042,13.1047 161.375,12.2713 153.5,12C 164.539,11.181 175.539,11.5144 186.5,13C 188.421,13.3603 190.088,14.1936 191.5,15.5C 191.291,16.086 190.957,16.586 190.5,17C 179.646,19.3961 168.646,20.5627 157.5,20.5 Z M 183.5,14.5 C 185.543,13.771 187.543,14.271 189.5,16C 187.782,16.346 186.115,16.846 184.5,17.5C 184.407,16.5281 184.074,15.5281 183.5,14.5 Z"/></g>
<g><path style="opacity:0.955" fill="#0e115d" d="M 31.5,21.5 C 33.3888,22.7416 35.3888,22.7416 37.5,21.5C 46.8393,21.3335 56.1726,21.5002 65.5,22C 69.5,25.6667 73.5,29.3333 77.5,33C 79.9018,33.8141 82.2351,33.6474 84.5,32.5C 85.2458,31.2638 85.5792,29.9305 85.5,28.5C 91.1667,28.5 96.8333,28.5 102.5,28.5C 102.163,31.8298 103.663,33.4964 107,33.5C 108.167,33.3333 109.333,33.1667 110.5,33C 114.833,29.3333 119.167,25.6667 123.5,22C 132.827,21.5002 142.161,21.3335 151.5,21.5C 153.389,22.7416 155.389,22.7416 157.5,21.5C 160.5,21.5 163.5,21.5 166.5,21.5C 167.064,25.8734 165.397,29.0401 161.5,31C 156.136,31.8295 150.802,31.6628 145.5,30.5C 145.291,29.914 144.957,29.414 144.5,29C 138.5,28.3333 132.5,28.3333 126.5,29C 124.461,30.9263 122.794,33.093 121.5,35.5C 120.026,36.4363 119.026,37.7697 118.5,39.5C 117.833,39.5 117.5,39.8333 117.5,40.5C 116.662,40.8417 116.328,41.5084 116.5,42.5C 116.93,43.421 118.264,43.921 120.5,44C 127.492,44.4996 134.492,44.6663 141.5,44.5C 141.791,45.6491 142.624,46.3158 144,46.5C 145.699,46.6134 146.866,45.9468 147.5,44.5C 149.167,44.5 150.833,44.5 152.5,44.5C 153.568,45.4345 154.901,45.7678 156.5,45.5C 156.66,47.1992 156.494,48.8659 156,50.5C 154.5,51.3333 153.333,52.5 152.5,54C 141.386,52.9433 130.22,51.7766 119,50.5C 113.456,50.9955 107.956,51.6622 102.5,52.5C 102.5,53.5 102.5,54.5 102.5,55.5C 100.076,55.1924 97.7427,55.5258 95.5,56.5C 96.1667,57.1667 96.8333,57.8333 97.5,58.5C 100.5,59.1667 103.5,59.8333 106.5,60.5C 105.414,67.1072 104.748,73.7738 104.5,80.5C 97.5,80.5 90.5,80.5 83.5,80.5C 83.1064,73.5036 82.7731,66.5036 82.5,59.5C 86.0071,60.0065 89.1737,59.3398 92,57.5C 92.1667,57.1667 92.3333,56.8333 92.5,56.5C 90.2573,55.5258 87.924,55.1924 85.5,55.5C 85.5,54.5 85.5,53.5 85.5,52.5C 74.6886,50.6841 63.6886,50.0174 52.5,50.5C 52.5,51.5 52.5,52.5 52.5,53.5C 45.666,53.9107 38.9993,53.244 32.5,51.5C 32.6816,49.4086 32.3482,47.4086 31.5,45.5C 34.4281,44.5159 37.4281,44.1826 40.5,44.5C 42.6112,45.7416 44.6112,45.7416 46.5,44.5C 55.384,44.7386 64.0506,44.0719 72.5,42.5C 71.8333,41.1667 70.8333,40.1667 69.5,39.5C 69.2624,37.5956 68.2624,36.2623 66.5,35.5C 64.0891,29.6068 59.5891,27.2734 53,28.5C 46.9923,29.0973 40.9923,29.764 35,30.5C 30.6015,30.6724 26.4348,30.0057 22.5,28.5C 22.3259,26.139 21.9926,23.8056 21.5,21.5C 24.8333,21.5 28.1667,21.5 31.5,21.5 Z"/></g>
<g><path style="opacity:0.165" fill="#c8c8c8" d="M 21.5,37.5 C 20.1667,37.5 18.8333,37.5 17.5,37.5C 16.0783,37.7086 14.745,38.2086 13.5,39C 22.2718,42.3884 31.2718,43.2217 40.5,41.5C 40.5,42.1667 40.5,42.8333 40.5,43.5C 28.6943,43.8633 17.0276,42.8633 5.5,40.5C 6.07665,37.3551 8.07665,35.8551 11.5,36C 15.6618,35.4589 19.8284,34.9589 24,34.5C 30.141,35.0751 36.3077,35.2418 42.5,35C 35.3817,36.0085 28.3817,36.8419 21.5,37.5 Z M 12.5,37.5 C 12.5827,40.8776 10.916,41.3776 7.5,39C 8.90469,37.7308 10.5714,37.2308 12.5,37.5 Z"/></g>
<g><path style="opacity:0.169" fill="#c8c8c8" d="M 152.5,44.5 C 150.833,44.5 149.167,44.5 147.5,44.5C 147.5,43.8333 147.5,43.1667 147.5,42.5C 155.983,43.0114 164.316,42.1781 172.5,40C 172.833,39.6667 173.167,39.3333 173.5,39C 172.552,38.5172 171.552,38.3505 170.5,38.5C 168.052,37.5269 165.385,37.1936 162.5,37.5C 157.015,36.6728 151.348,36.1728 145.5,36C 157.624,34.0114 169.624,34.678 181.5,38C 182.833,39 182.833,40 181.5,41C 171.859,42.7701 162.193,43.9368 152.5,44.5 Z M 175.5,40.5 C 175.281,39.325 175.614,38.325 176.5,37.5C 181.586,39.1377 181.253,40.1377 175.5,40.5 Z"/></g>
<g><path style="opacity:0.584" fill="#a6a6a6" d="M 17.5,37.5 C 18.8333,37.5 20.1667,37.5 21.5,37.5C 28.5,37.5 35.5,37.5 42.5,37.5C 42.5,38.8333 41.8333,39.5 40.5,39.5C 33.5694,40.1778 26.5694,40.0111 19.5,39C 18.5842,38.7216 17.9175,38.2216 17.5,37.5 Z"/></g>
<g><path style="opacity:0.58" fill="#afafaf" d="M 66.5,35.5 C 68.2624,36.2623 69.2624,37.5956 69.5,39.5C 61.7814,40.1198 54.1147,40.1198 46.5,39.5C 45.6618,39.1583 45.3284,38.4916 45.5,37.5C 51.5092,37.6662 57.5092,37.4995 63.5,37C 56.8454,36.2132 50.1787,35.5466 43.5,35C 51.2155,34.2332 58.8821,34.3999 66.5,35.5 Z"/></g>
<g><path style="opacity:0.528" fill="#aeaeae" d="M 143.5,37.5 C 143.5,38.1667 143.5,38.8333 143.5,39.5C 142.508,39.3284 141.842,39.6618 141.5,40.5C 133.825,40.3198 126.158,39.9865 118.5,39.5C 119.026,37.7697 120.026,36.4363 121.5,35.5C 128.117,34.411 134.783,34.2443 141.5,35C 136.148,35.5206 130.815,36.1872 125.5,37C 131.491,37.4995 137.491,37.6662 143.5,37.5 Z"/></g>
<g><path style="opacity:0.517" fill="#a5a5a5" d="M 145.5,37.5 C 151.167,37.5 156.833,37.5 162.5,37.5C 165.385,37.1936 168.052,37.5269 170.5,38.5C 163.056,40.0578 155.389,40.7245 147.5,40.5C 147.5,39.8333 147.167,39.5 146.5,39.5C 145.662,39.1583 145.328,38.4916 145.5,37.5 Z"/></g>
<g><path style="opacity:0.908" fill="#2e3940" d="M 42.5,37.5 C 43.5,37.5 44.5,37.5 45.5,37.5C 45.3284,38.4916 45.6618,39.1583 46.5,39.5C 46.5,40.1667 46.5,40.8333 46.5,41.5C 46.5,42.1667 46.5,42.8333 46.5,43.5C 46.5,43.8333 46.5,44.1667 46.5,44.5C 44.6112,45.7416 42.6112,45.7416 40.5,44.5C 40.5,44.1667 40.5,43.8333 40.5,43.5C 40.5,42.8333 40.5,42.1667 40.5,41.5C 40.5,40.8333 40.5,40.1667 40.5,39.5C 41.8333,39.5 42.5,38.8333 42.5,37.5 Z"/></g>
<g><path style="opacity:0.934" fill="#29353d" d="M 143.5,37.5 C 144.167,37.5 144.833,37.5 145.5,37.5C 145.328,38.4916 145.662,39.1583 146.5,39.5C 147.167,39.5 147.5,39.8333 147.5,40.5C 147.5,41.1667 147.5,41.8333 147.5,42.5C 147.5,43.1667 147.5,43.8333 147.5,44.5C 146.866,45.9468 145.699,46.6134 144,46.5C 142.624,46.3158 141.791,45.6491 141.5,44.5C 141.5,44.1667 141.5,43.8333 141.5,43.5C 141.5,43.1667 141.5,42.8333 141.5,42.5C 141.5,41.8333 141.5,41.1667 141.5,40.5C 142.492,40.6716 143.158,40.3382 143.5,39.5C 143.5,38.8333 143.5,38.1667 143.5,37.5 Z"/></g>
<g><path style="opacity:0.158" fill="#c7c7c7" d="M 69.5,39.5 C 70.8333,40.1667 71.8333,41.1667 72.5,42.5C 63.8154,42.464 55.1487,42.7974 46.5,43.5C 46.5,42.8333 46.5,42.1667 46.5,41.5C 54.4106,41.9213 62.0773,41.2546 69.5,39.5 Z"/></g>
<g><path style="opacity:0.204" fill="#c8c8c8" d="M 117.5,40.5 C 125.5,41.1667 133.5,41.8333 141.5,42.5C 141.5,42.8333 141.5,43.1667 141.5,43.5C 133.181,42.876 124.848,42.5426 116.5,42.5C 116.328,41.5084 116.662,40.8417 117.5,40.5 Z"/></g>
<g><path style="opacity:1" fill="#29353e" d="M 96.5,64.5 C 93.9882,65.2162 93.9882,66.2162 96.5,67.5C 97.3857,66.675 97.719,65.675 97.5,64.5C 101.481,68.2141 101.481,72.0475 97.5,76C 90.2199,77.7187 87.0532,74.8854 88,67.5C 90.0218,63.8081 92.8551,62.8081 96.5,64.5 Z"/></g>
<g><path style="opacity:1" fill="#c8cbcd" d="M 96.5,64.5 C 96.8333,64.5 97.1667,64.5 97.5,64.5C 97.719,65.675 97.3857,66.675 96.5,67.5C 93.9882,66.2162 93.9882,65.2162 96.5,64.5 Z"/></g>
<g><path style="opacity:0.723" fill="#253237" d="M 82.5,82.5 C 82.56,81.9569 82.8933,81.6236 83.5,81.5C 86.8587,83.0086 90.3587,84.0086 94,84.5C 97.9947,83.8728 101.828,83.0394 105.5,82C 97.9972,87.7684 90.3305,87.9351 82.5,82.5 Z"/></g>
<g><path style="opacity:0.663" fill="#263237" d="M 78.5,85.5 C 78.56,84.9569 78.8933,84.6236 79.5,84.5C 89.5134,89.5958 99.5134,89.7624 109.5,85C 99.3309,92.1444 88.9976,92.3111 78.5,85.5 Z"/></g>
<g><path style="opacity:0.165" fill="#253136" d="M 74.5,87.5 C 87.3447,95.4021 100.178,95.4021 113,87.5C 113.167,87.8333 113.333,88.1667 113.5,88.5C 102.93,96.0896 91.5966,97.2562 79.5,92C 77.2925,90.9525 75.6258,89.4525 74.5,87.5 Z"/></g>
</svg>
